<?xml version="1.0" ?><!DOCTYPE svg  PUBLIC '-//W3C//DTD SVG 1.1//EN'  'http://www.w3.org/Graphics/SVG/1.1/DTD/svg11.dtd'><svg enable-background="new 0 0 512 512" id="Layer_1" version="1.1" viewBox="0 0 512 512" xml:space="preserve" xmlns="http://www.w3.org/2000/svg" xmlns:xlink="http://www.w3.org/1999/xlink"><g><path d="M512.1,447.8c-170.2,0-340,0-510.1,0C2,320.6,2,193.6,2,66.3c169.9,0,339.8,0,510.1,0C512.1,193.4,512.1,320.4,512.1,447.8   z M258.4,299.2c-13.6-11.5-27.2-23-40.8-34.5c-20.4,16.4-40.4,32.5-60.3,48.6c-23.7,19.1-47.3,38.4-71.4,57.2   c-4.2,3.3-5.2,6.3-5.2,11.1c0.2,18.8,0.1,37.7,0.1,56.5c0,1.8,0,3.5,0,5.5c119.7,0,238.7,0,357.8,0c0.2-0.8,0.4-1.3,0.4-1.7   c0-23.2,0.1-46.3-0.1-69.5c0-1.8-1.9-4.1-3.5-5.2C397.2,340,359,313,320.8,286c-8.7-6.1-17.4-12.3-26.2-18.5   C282.4,278.1,270.5,288.5,258.4,299.2z M256.2,222.8c10.5-6.9,156.2-147.3,158.4-152.5c-103.6,0-207.2,0-309.4,0   C155.3,120.8,205.8,171.9,256.2,222.8z M302.4,260.5c45.6,31.9,90.7,63.5,136.4,95.4c0-71.5,0-142,0-213.5   C393,182,347.9,221,302.4,260.5z M81.1,360.4c43.2-34.6,85.7-68.5,128.4-102.6c-42.9-36.5-85.3-72.6-128.4-109.2   C81.1,219.6,81.1,289.5,81.1,360.4z"/></g></svg>